<mxfile host="app.diagrams.net" modified="2022-07-08T11:32:14.338Z" agent="5.0 (Windows NT 10.0; Win64; x64) AppleWebKit/537.36 (KHTML, like Gecko) Chrome/103.0.0.0 Safari/537.36" etag="o8r7Xovnka4UYOT9kNqr" version="20.0.4" type="github">
  <diagram id="sGYk5eMIgjioQovyQKoI" name="Page-1">
    <mxGraphModel dx="1093" dy="616" grid="1" gridSize="10" guides="1" tooltips="1" connect="1" arrows="1" fold="1" page="1" pageScale="1" pageWidth="827" pageHeight="1169" math="0" shadow="0">
      <root>
        <mxCell id="0" />
        <mxCell id="1" parent="0" />
        <mxCell id="vNFEg00XExLZXuLtH3mY-28" value="プロセス間通信" style="text;html=1;strokeColor=none;fillColor=none;align=center;verticalAlign=middle;whiteSpace=wrap;rounded=0;opacity=70;fontStyle=1" vertex="1" parent="1">
          <mxGeometry x="200" y="320" width="110" height="30" as="geometry" />
        </mxCell>
        <mxCell id="vNFEg00XExLZXuLtH3mY-23" value="" style="rounded=1;whiteSpace=wrap;html=1;fillColor=#d5e8d4;strokeColor=#82b366;arcSize=50;opacity=70;" vertex="1" parent="1">
          <mxGeometry x="70" y="350" width="720" height="160" as="geometry" />
        </mxCell>
        <mxCell id="vNFEg00XExLZXuLtH3mY-16" value="" style="rounded=1;whiteSpace=wrap;html=1;fillColor=#dae8fc;strokeColor=#6c8ebf;arcSize=50;opacity=70;" vertex="1" parent="1">
          <mxGeometry x="70" y="150" width="720" height="160" as="geometry" />
        </mxCell>
        <mxCell id="vNFEg00XExLZXuLtH3mY-1" value="&lt;h1&gt;Peak Identification Application system&lt;/h1&gt;&lt;p&gt;Tauri を使ったピーク検知ソフトウェアのシステム設計&lt;/p&gt;" style="text;html=1;strokeColor=none;fillColor=none;spacing=5;spacingTop=-20;whiteSpace=wrap;overflow=hidden;rounded=0;" vertex="1" parent="1">
          <mxGeometry x="70" y="60" width="470" height="120" as="geometry" />
        </mxCell>
        <mxCell id="vNFEg00XExLZXuLtH3mY-2" value="WebView Process" style="rounded=0;whiteSpace=wrap;html=1;fontStyle=1" vertex="1" parent="1">
          <mxGeometry x="145" y="180" width="120" height="60" as="geometry" />
        </mxCell>
        <mxCell id="vNFEg00XExLZXuLtH3mY-5" value="Core Process" style="rounded=0;whiteSpace=wrap;html=1;fontStyle=1" vertex="1" parent="1">
          <mxGeometry x="145" y="390" width="120" height="60" as="geometry" />
        </mxCell>
        <mxCell id="vNFEg00XExLZXuLtH3mY-6" value="Rust" style="text;html=1;strokeColor=none;fillColor=none;align=center;verticalAlign=middle;whiteSpace=wrap;rounded=0;" vertex="1" parent="1">
          <mxGeometry x="265" y="420" width="60" height="30" as="geometry" />
        </mxCell>
        <mxCell id="vNFEg00XExLZXuLtH3mY-7" value="WebView" style="text;html=1;strokeColor=none;fillColor=none;align=center;verticalAlign=middle;whiteSpace=wrap;rounded=0;" vertex="1" parent="1">
          <mxGeometry x="265" y="210" width="60" height="30" as="geometry" />
        </mxCell>
        <mxCell id="vNFEg00XExLZXuLtH3mY-12" value="Component: HTML/ CSS/ JavaScript" style="text;html=1;strokeColor=none;fillColor=none;align=center;verticalAlign=middle;whiteSpace=wrap;rounded=0;" vertex="1" parent="1">
          <mxGeometry x="265" y="180" width="210" height="30" as="geometry" />
        </mxCell>
        <mxCell id="vNFEg00XExLZXuLtH3mY-13" value="" style="endArrow=classic;startArrow=classic;html=1;rounded=0;exitX=0.5;exitY=0;exitDx=0;exitDy=0;entryX=0.5;entryY=1;entryDx=0;entryDy=0;" edge="1" parent="1" source="vNFEg00XExLZXuLtH3mY-5" target="vNFEg00XExLZXuLtH3mY-2">
          <mxGeometry width="50" height="50" relative="1" as="geometry">
            <mxPoint x="220" y="290" as="sourcePoint" />
            <mxPoint x="270" y="240" as="targetPoint" />
          </mxGeometry>
        </mxCell>
        <mxCell id="vNFEg00XExLZXuLtH3mY-18" value="WebView Process ですること" style="swimlane;fontStyle=0;childLayout=stackLayout;horizontal=1;startSize=30;horizontalStack=0;resizeParent=1;resizeParentMax=0;resizeLast=0;collapsible=1;marginBottom=0;opacity=70;" vertex="1" parent="1">
          <mxGeometry x="480" y="170" width="270" height="120" as="geometry" />
        </mxCell>
        <mxCell id="vNFEg00XExLZXuLtH3mY-22" value="推定方法の選択 (マウスドラッグ, ridge method)" style="text;strokeColor=none;fillColor=none;align=left;verticalAlign=middle;spacingLeft=4;spacingRight=4;overflow=hidden;points=[[0,0.5],[1,0.5]];portConstraint=eastwest;rotatable=0;opacity=70;" vertex="1" parent="vNFEg00XExLZXuLtH3mY-18">
          <mxGeometry y="30" width="270" height="30" as="geometry" />
        </mxCell>
        <mxCell id="vNFEg00XExLZXuLtH3mY-19" value="ユーザーがGUIで行うピーク位置の初期推定" style="text;strokeColor=none;fillColor=none;align=left;verticalAlign=middle;spacingLeft=4;spacingRight=4;overflow=hidden;points=[[0,0.5],[1,0.5]];portConstraint=eastwest;rotatable=0;opacity=70;" vertex="1" parent="vNFEg00XExLZXuLtH3mY-18">
          <mxGeometry y="60" width="270" height="30" as="geometry" />
        </mxCell>
        <mxCell id="vNFEg00XExLZXuLtH3mY-21" value="フィッティング関数の選択" style="text;strokeColor=none;fillColor=none;align=left;verticalAlign=middle;spacingLeft=4;spacingRight=4;overflow=hidden;points=[[0,0.5],[1,0.5]];portConstraint=eastwest;rotatable=0;opacity=70;" vertex="1" parent="vNFEg00XExLZXuLtH3mY-18">
          <mxGeometry y="90" width="270" height="30" as="geometry" />
        </mxCell>
        <mxCell id="vNFEg00XExLZXuLtH3mY-24" value="Core Process ですること" style="swimlane;fontStyle=0;childLayout=stackLayout;horizontal=1;startSize=30;horizontalStack=0;resizeParent=1;resizeParentMax=0;resizeLast=0;collapsible=1;marginBottom=0;opacity=70;" vertex="1" parent="1">
          <mxGeometry x="480" y="365" width="270" height="130" as="geometry" />
        </mxCell>
        <mxCell id="vNFEg00XExLZXuLtH3mY-25" value="初期推定を用いたフィッティング" style="text;strokeColor=none;fillColor=none;align=left;verticalAlign=middle;spacingLeft=4;spacingRight=4;overflow=hidden;points=[[0,0.5],[1,0.5]];portConstraint=eastwest;rotatable=0;opacity=70;" vertex="1" parent="vNFEg00XExLZXuLtH3mY-24">
          <mxGeometry y="30" width="270" height="30" as="geometry" />
        </mxCell>
        <mxCell id="vNFEg00XExLZXuLtH3mY-27" value="フィッティング結果(ピーク情報)を書き出す" style="text;strokeColor=none;fillColor=none;align=left;verticalAlign=middle;spacingLeft=4;spacingRight=4;overflow=hidden;points=[[0,0.5],[1,0.5]];portConstraint=eastwest;rotatable=0;opacity=70;" vertex="1" parent="vNFEg00XExLZXuLtH3mY-24">
          <mxGeometry y="60" width="270" height="30" as="geometry" />
        </mxCell>
        <mxCell id="vNFEg00XExLZXuLtH3mY-29" value="ridge method の場合、しきい値を超える場所を&#xa;ピークとして出力する(フィッティングなし？)" style="text;strokeColor=none;fillColor=none;align=left;verticalAlign=middle;spacingLeft=4;spacingRight=4;overflow=hidden;points=[[0,0.5],[1,0.5]];portConstraint=eastwest;rotatable=0;opacity=70;" vertex="1" parent="vNFEg00XExLZXuLtH3mY-24">
          <mxGeometry y="90" width="270" height="40" as="geometry" />
        </mxCell>
        <mxCell id="vNFEg00XExLZXuLtH3mY-33" value="" style="rounded=1;whiteSpace=wrap;html=1;fillColor=#e1d5e7;strokeColor=#9673a6;arcSize=24;opacity=70;" vertex="1" parent="1">
          <mxGeometry x="830" y="150" width="420" height="360" as="geometry" />
        </mxCell>
        <mxCell id="vNFEg00XExLZXuLtH3mY-35" value="" style="strokeWidth=2;html=1;shape=mxgraph.flowchart.database;whiteSpace=wrap;opacity=70;" vertex="1" parent="1">
          <mxGeometry x="880" y="180" width="60" height="60" as="geometry" />
        </mxCell>
        <mxCell id="vNFEg00XExLZXuLtH3mY-31" value="DB" style="text;html=1;strokeColor=none;fillColor=none;align=center;verticalAlign=middle;whiteSpace=wrap;rounded=0;opacity=70;fontStyle=1" vertex="1" parent="1">
          <mxGeometry x="880" y="200" width="60" height="30" as="geometry" />
        </mxCell>
      </root>
    </mxGraphModel>
  </diagram>
</mxfile>
